<?xml version="1.0" encoding="utf-8"?>
<!-- Generator: Adobe Illustrator 21.0.0, SVG Export Plug-In . SVG Version: 6.00 Build 0)  -->
<svg version="1.1" id="Layer_1" xmlns="http://www.w3.org/2000/svg" xmlns:xlink="http://www.w3.org/1999/xlink" x="0px" y="0px"
	 viewBox="0 0 48 48" style="enable-background:new 0 0 48 48;" xml:space="preserve">
<style type="text/css">
	.st0{fill:#FF8517;}
	.st1{fill:#FFFFFF;}
</style>
<g>
	<circle class="st0" cx="24" cy="24" r="23"/>
	<path class="st1" d="M37.2,16.8c-1.3-1.3-2.9-2-4.7-2c0,0,0,0,0,0c0,0,0,0,0,0c-0.5,0-1,0-1.4,0c-4-0.1-8.3-0.1-10,5.8l-3.7,10.1
		L12,15.9c-0.3-0.7-1-1.3-1.8-1.1c-1,0.2-1.6,1.2-1.2,2.1l6.1,16.9c0.3,1,1.3,1.6,2.3,1.6h0c1,0,1.9-0.6,2.3-1.6l4.4-12.2
		C25.2,17.9,27,18,31,18c0.5,0,1.5,0,1.5,0c0,0,0,0,0,0c0.9,0,1.8,0.4,2.5,1c0.7,0.7,1,1.5,1,2.5c0,1.9-1.6,3.5-3.5,3.5
		c-1.7,0-3.1-1.2-3.4-2.8c0-0.2-0.1-0.4-0.1-0.7v0c0-0.9-0.7-1.6-1.6-1.6s-1.6,0.7-1.6,1.6v12.1c0,0.9,0.7,1.6,1.6,1.6
		s1.6-0.7,1.6-1.6v-6.4c1,0.6,2.2,1,3.5,1c3.7,0,6.7-3,6.7-6.7C39.2,19.7,38.5,18.1,37.2,16.8z"/>
</g>
</svg>
