<?xml version="1.0" encoding="utf-8"?>
<!-- Generator: Adobe Illustrator 21.0.0, SVG Export Plug-In . SVG Version: 6.00 Build 0)  -->
<svg version="1.1"
	 id="svg6255" inkscape:version="0.48.4 r9939" sodipodi:docname="ic_app_color_48dp_beta.svg" xmlns:cc="http://creativecommons.org/ns#" xmlns:dc="http://purl.org/dc/elements/1.1/" xmlns:inkscape="http://www.inkscape.org/namespaces/inkscape" xmlns:rdf="http://www.w3.org/1999/02/22-rdf-syntax-ns#" xmlns:sodipodi="http://sodipodi.sourceforge.net/DTD/sodipodi-0.dtd" xmlns:svg="http://www.w3.org/2000/svg"
	 xmlns="http://www.w3.org/2000/svg" xmlns:xlink="http://www.w3.org/1999/xlink" x="0px" y="0px" viewBox="0 0 48 48"
	 style="enable-background:new 0 0 48 48;" xml:space="preserve">
<style type="text/css">
	.st0{fill:#5A0094;}
	.st1{fill:#FFFFFF;}
</style>
<sodipodi:namedview  bordercolor="#666666" borderopacity="1.0" id="base" inkscape:current-layer="layer1" inkscape:cx="-55.496476" inkscape:cy="55.288097" inkscape:document-units="px" inkscape:pageopacity="0.0" inkscape:pageshadow="2" inkscape:window-height="704" inkscape:window-maximized="0" inkscape:window-width="1359" inkscape:window-x="322" inkscape:window-y="138" inkscape:zoom="1.979899" pagecolor="#ffffff" showgrid="false">
	</sodipodi:namedview>
<g>
	<circle class="st0" cx="24" cy="24" r="23"/>
	<path class="st1" d="M37.2,16.8c-1.3-1.3-2.9-2-4.7-2l0,0l0,0c-0.5,0-1,0-1.4,0c-4-0.1-8.3-0.1-10,5.8l-3.7,10.1L12,15.9
		c-0.3-0.7-1-1.3-1.8-1.1C9.2,15,8.6,16,9,16.9l6.1,16.9c0.3,1,1.3,1.6,2.3,1.6l0,0c1,0,1.9-0.6,2.3-1.6l4.4-12.2
		C25.2,17.9,27,18,31,18c0.5,0,1.5,0,1.5,0l0,0c0.9,0,1.8,0.4,2.5,1c0.7,0.7,1,1.5,1,2.5c0,1.9-1.6,3.5-3.5,3.5
		c-1.7,0-3.1-1.2-3.4-2.8c0-0.2-0.1-0.4-0.1-0.7l0,0c0-0.9-0.7-1.6-1.6-1.6s-1.6,0.7-1.6,1.6v12.1c0,0.9,0.7,1.6,1.6,1.6
		s1.6-0.7,1.6-1.6v-6.4c1,0.6,2.2,1,3.5,1c3.7,0,6.7-3,6.7-6.7C39.2,19.7,38.5,18.1,37.2,16.8z"/>
</g>
</svg>
